<?xml version="1.0" encoding="utf-8"?>
<!-- Generator: Adobe Illustrator 22.1.0, SVG Export Plug-In . SVG Version: 6.00 Build 0)  -->
<svg version="1.1" id="Calque_1" xmlns="http://www.w3.org/2000/svg" xmlns:xlink="http://www.w3.org/1999/xlink" x="0px" y="0px"
	 viewBox="0 0 202 121" style="enable-background:new 0 0 202 121;" xml:space="preserve">
<style type="text/css">
	.st0{fill:#FFFFFF;}
</style>
<g>
	<path class="st0" d="M71.6,57.2L59.3,87.7c-0.7,1.7-1.8,3-3.4,4c-1.5,1-3.2,1.5-5.1,1.5c-1.8,0-3.5-0.5-5.1-1.5
		c-1.5-1-2.7-2.3-3.4-4L12,12.5v74.8c0,1.7-0.6,3.1-1.8,4.2s-2.6,1.7-4.3,1.7s-3.1-0.6-4.2-1.7S0,89,0,87.3V8.7
		c0-2.4,0.8-4.4,2.5-6.1S6.2,0,8.6,0h4.3c1.8,0,3.4,0.5,4.8,1.6c1.5,1.1,2.5,2.4,3.2,4l29.9,74.5l19.8-49.4L71.6,57.2z"/>
</g>
<g>
	<path class="st0" d="M84.9,91.5c-1.2-1.2-1.7-2.6-1.7-4.3V6.3c0-1.7,0.6-3.1,1.7-4.3c1.2-1.2,2.6-1.8,4.3-1.8H116
		c10.1,0,18.7,2.2,25.8,6.7s12.4,10.3,15.9,17.4c3.6,7.1,5.3,14.6,5.3,22.4s-1.8,15.3-5.3,22.4c-3.6,7.1-8.9,12.9-15.9,17.4
		c-7.1,4.5-15.7,6.7-25.8,6.7H89.2C87.5,93.2,86.1,92.7,84.9,91.5z M114.5,81.9c7.3,0,13.7-1.5,19.2-4.5s9.8-7.1,12.8-12.4
		s4.5-11.4,4.5-18.3s-1.5-13-4.5-18.3S139.2,19,133.7,16s-11.9-4.5-19.2-4.5H95.3v70.4H114.5z"/>
</g>
<g>
	<path class="st0" d="M0.4,120.3C0.1,120,0,119.7,0,119.4v-17.3c0-0.5,0.2-1,0.6-1.3s0.8-0.6,1.3-0.6h1c0.4,0,0.7,0.1,1.1,0.3
		c0.3,0.2,0.6,0.5,0.7,0.9l6.6,16.4l6.6-16.4c0.2-0.3,0.4-0.6,0.7-0.9c0.3-0.2,0.7-0.3,1.1-0.3h1c0.5,0,1,0.2,1.3,0.6
		s0.6,0.8,0.6,1.3v17.3c0,0.4-0.1,0.7-0.4,0.9c-0.3,0.3-0.6,0.4-0.9,0.4c-0.4,0-0.7-0.1-0.9-0.4c-0.3-0.3-0.4-0.6-0.4-0.9v-16.5
		l-7,16.6c-0.2,0.4-0.4,0.7-0.7,0.9s-0.7,0.3-1.1,0.3c-0.4,0-0.8-0.1-1.1-0.3s-0.6-0.5-0.7-0.9l-6.7-16.6v16.5
		c0,0.4-0.1,0.7-0.4,0.9c-0.3,0.3-0.6,0.4-0.9,0.4C0.9,120.7,0.6,120.6,0.4,120.3z"/>
	<path class="st0" d="M28.9,120.3c-0.7-0.3-1.3-0.9-1.7-1.5c-0.4-0.7-0.6-1.4-0.6-2.3c0-1.4,0.6-2.6,1.7-3.4s2.8-1.3,5-1.3h3.5v-0.2
		c0-1.3-0.3-2.2-0.9-2.8c-0.6-0.6-1.6-0.8-2.9-0.8c-0.7,0-1.4,0.1-2,0.2s-1.2,0.3-1.9,0.5c-0.2,0-0.3,0.1-0.4,0.1
		c-0.3,0-0.5-0.1-0.8-0.3c-0.2-0.2-0.3-0.5-0.3-0.8c0-0.5,0.3-0.9,0.8-1.1c1.6-0.7,3.3-1,5-1c1.3,0,2.5,0.3,3.4,0.8s1.6,1.2,2,2.1
		s0.7,1.8,0.7,2.8v8.2c0,0.4-0.1,0.7-0.4,0.9c-0.3,0.3-0.6,0.4-0.9,0.4s-0.7-0.1-0.9-0.4c-0.3-0.3-0.4-0.6-0.4-0.9v-0.8
		c-1.4,1.5-3.2,2.2-5.5,2.2C30.4,120.8,29.6,120.7,28.9,120.3z M34.7,117.9c0.8-0.4,1.5-0.9,2-1.6v-2.4h-3.2c-2.9,0-4.4,0.8-4.4,2.3
		c0,0.7,0.2,1.3,0.7,1.7s1.3,0.6,2.4,0.6C33.1,118.5,33.9,118.3,34.7,117.9z"/>
	<path class="st0" d="M44.3,117v-9h-2.1c-0.2,0-0.3-0.1-0.4-0.2c-0.1-0.1-0.2-0.2-0.2-0.4c0-0.2,0.1-0.4,0.3-0.5l3.9-3.9
		c0.2-0.2,0.3-0.3,0.5-0.3s0.3,0.1,0.4,0.2s0.2,0.3,0.2,0.4v2.3h3.3c0.3,0,0.6,0.1,0.8,0.3c0.2,0.2,0.3,0.5,0.3,0.8
		s-0.1,0.6-0.3,0.8c-0.2,0.2-0.5,0.3-0.8,0.3H47v8.8c0,0.8,0.2,1.2,0.5,1.4c0.4,0.2,0.8,0.3,1.3,0.3c0.4,0,0.8-0.1,1.2-0.2
		c0.1,0,0.2,0,0.2-0.1c0.1,0,0.2,0,0.3,0c0.3,0,0.5,0.1,0.7,0.3s0.3,0.4,0.3,0.7c0,0.4-0.2,0.8-0.7,1c-0.8,0.3-1.6,0.5-2.4,0.5
		C45.7,120.8,44.3,119.6,44.3,117z"/>
	<path class="st0" d="M54.9,120.3c-0.3-0.3-0.4-0.6-0.4-0.9v-18.8c0-0.4,0.1-0.7,0.4-0.9c0.3-0.3,0.6-0.4,0.9-0.4
		c0.4,0,0.7,0.1,0.9,0.4c0.3,0.3,0.4,0.6,0.4,0.9v7.6c0.7-0.8,1.5-1.5,2.4-1.9c0.9-0.5,1.9-0.7,3-0.7s2,0.3,2.8,0.8s1.4,1.2,1.8,2.1
		s0.6,1.8,0.6,2.9v8.2c0,0.4-0.1,0.7-0.4,0.9c-0.3,0.3-0.6,0.4-0.9,0.4c-0.4,0-0.7-0.1-0.9-0.4c-0.3-0.3-0.4-0.6-0.4-0.9v-7.9
		c0-2.4-1.1-3.5-3.2-3.5c-1,0-1.8,0.3-2.6,0.8s-1.5,1.2-2.2,2v8.7c0,0.4-0.1,0.7-0.4,0.9c-0.3,0.3-0.6,0.4-0.9,0.4
		C55.5,120.7,55.1,120.6,54.9,120.3z"/>
	<path class="st0" d="M72.4,102.3c-0.3-0.3-0.4-0.6-0.4-1v-0.1c0-0.4,0.1-0.8,0.4-1s0.6-0.4,1-0.4h0.2c0.4,0,0.8,0.1,1,0.4
		s0.4,0.6,0.4,1v0.1c0,0.4-0.1,0.8-0.4,1s-0.6,0.4-1,0.4h-0.2C73,102.7,72.7,102.6,72.4,102.3z M72.6,120.3
		c-0.3-0.3-0.4-0.6-0.4-0.9V107c0-0.4,0.1-0.7,0.4-0.9c0.3-0.3,0.6-0.4,0.9-0.4c0.4,0,0.7,0.1,1,0.4s0.4,0.6,0.4,1v12.4
		c0,0.4-0.1,0.7-0.4,0.9c-0.3,0.3-0.6,0.4-0.9,0.4C73.1,120.7,72.8,120.6,72.6,120.3z"/>
	<path class="st0" d="M80.5,118.8c-1.3-1.3-2-3.2-2-5.7c0-1.4,0.3-2.6,0.8-3.8c0.5-1.2,1.3-2.1,2.3-2.8s2.3-1.1,3.9-1.1
		c1.4,0,2.7,0.3,3.7,1s1.8,1.6,2.4,2.7c0.5,1.1,0.8,2.3,0.8,3.6c0,0.4-0.1,0.7-0.4,0.9s-0.6,0.4-1,0.4h-9.8c0.2,1.4,0.7,2.4,1.5,3.2
		c0.9,0.8,2,1.1,3.6,1.1c0.8,0,1.5-0.1,2.1-0.2c0.6-0.2,1.2-0.4,1.8-0.7c0.2-0.1,0.3-0.1,0.5-0.1c0.3,0,0.6,0.1,0.8,0.3
		c0.2,0.2,0.3,0.5,0.3,0.8c0,0.4-0.3,0.8-0.8,1.1c-0.8,0.4-1.5,0.7-2.2,1c-0.7,0.2-1.7,0.3-2.8,0.3
		C83.7,120.8,81.8,120.2,80.5,118.8z M89.7,111.9c-0.1-0.9-0.3-1.7-0.7-2.4c-0.4-0.6-1-1.1-1.6-1.4s-1.3-0.4-1.9-0.4
		c-0.7,0-1.3,0.1-1.9,0.4s-1.2,0.8-1.6,1.4s-0.7,1.4-0.7,2.4H89.7z"/>
	<path class="st0" d="M98.1,120.1c-0.8-0.5-1.4-1.2-1.8-2.1s-0.6-1.8-0.6-2.9v-8.2c0-0.4,0.1-0.7,0.4-0.9c0.3-0.3,0.6-0.4,0.9-0.4
		c0.4,0,0.7,0.1,0.9,0.4c0.3,0.3,0.4,0.6,0.4,0.9v7.9c0,2.4,1.1,3.5,3.2,3.5c1,0,1.8-0.3,2.6-0.8c0.8-0.5,1.5-1.2,2.2-2v-8.7
		c0-0.4,0.1-0.7,0.4-0.9c0.3-0.3,0.6-0.4,0.9-0.4s0.7,0.1,0.9,0.4c0.3,0.3,0.4,0.6,0.4,0.9v12.4c0,0.4-0.1,0.7-0.4,0.9
		c-0.3,0.3-0.6,0.4-0.9,0.4s-0.7-0.1-0.9-0.4c-0.3-0.3-0.4-0.6-0.4-0.9V118c-0.7,0.8-1.5,1.5-2.4,1.9c-0.9,0.5-1.9,0.7-3,0.7
		C99.8,120.8,98.9,120.6,98.1,120.1z"/>
	<path class="st0" d="M121.9,120.2c-0.3-0.3-0.4-0.6-0.4-0.9v-17.6c0-0.4,0.1-0.7,0.4-0.9c0.3-0.3,0.6-0.4,0.9-0.4h5.8
		c2.2,0,4.1,0.5,5.6,1.5s2.7,2.2,3.5,3.8c0.8,1.5,1.2,3.2,1.2,4.9s-0.4,3.3-1.2,4.9c-0.8,1.5-1.9,2.8-3.5,3.8
		c-1.5,1-3.4,1.5-5.6,1.5h-5.8C122.5,120.5,122.2,120.4,121.9,120.2z M128.4,118.1c1.6,0,3-0.3,4.2-1c1.2-0.6,2.1-1.5,2.8-2.7
		c0.7-1.1,1-2.5,1-4s-0.3-2.8-1-4s-1.6-2-2.8-2.7c-1.2-0.6-2.6-1-4.2-1h-4.2V118L128.4,118.1L128.4,118.1z"/>
	<path class="st0" d="M143.3,118.8c-1.3-1.3-2-3.2-2-5.7c0-1.4,0.3-2.6,0.8-3.8c0.5-1.2,1.3-2.1,2.3-2.8s2.3-1.1,3.9-1.1
		c1.4,0,2.7,0.3,3.7,1s1.8,1.6,2.4,2.7c0.5,1.1,0.8,2.3,0.8,3.6c0,0.4-0.1,0.7-0.4,0.9s-0.6,0.4-1,0.4H144c0.2,1.4,0.7,2.4,1.5,3.2
		c0.9,0.8,2,1.1,3.6,1.1c0.8,0,1.5-0.1,2.1-0.2c0.6-0.2,1.2-0.4,1.8-0.7c0.2-0.1,0.3-0.1,0.5-0.1c0.3,0,0.6,0.1,0.8,0.3
		s0.3,0.5,0.3,0.8c0,0.4-0.3,0.8-0.8,1.1c-0.8,0.4-1.5,0.7-2.2,1c-0.7,0.2-1.7,0.3-2.8,0.3C146.5,120.8,144.7,120.2,143.3,118.8z
		 M152.6,111.9c-0.1-0.9-0.3-1.7-0.7-2.4c-0.4-0.6-1-1.1-1.6-1.4s-1.3-0.4-1.9-0.4c-0.7,0-1.3,0.1-1.9,0.4c-0.6,0.3-1.2,0.8-1.6,1.4
		c-0.4,0.6-0.7,1.4-0.7,2.4H152.6z"/>
	<path class="st0" d="M159,120.3c-0.3-0.3-0.4-0.6-0.4-0.9v-18.8c0-0.4,0.1-0.7,0.4-0.9c0.3-0.3,0.6-0.4,0.9-0.4
		c0.4,0,0.7,0.1,1,0.4s0.4,0.6,0.4,1v18.8c0,0.4-0.1,0.7-0.4,0.9c-0.3,0.3-0.6,0.4-0.9,0.4C159.6,120.7,159.3,120.6,159,120.3z"/>
	<path class="st0" d="M166.3,120.3c-0.3-0.3-0.4-0.6-0.4-0.9V107c0-0.4,0.1-0.7,0.4-0.9c0.3-0.3,0.6-0.4,0.9-0.4
		c0.4,0,0.7,0.1,0.9,0.4c0.3,0.3,0.4,0.6,0.4,0.9v1.2c1.4-1.8,2.9-2.7,4.6-2.7h0.1c0.4,0,0.7,0.1,0.9,0.4s0.4,0.6,0.4,0.9
		c0,0.4-0.1,0.7-0.4,0.9c-0.3,0.2-0.6,0.3-1,0.3H173c-0.9,0-1.8,0.2-2.6,0.7s-1.4,1.1-1.9,1.9v8.8c0,0.4-0.1,0.7-0.4,0.9
		c-0.3,0.3-0.6,0.4-0.9,0.4C166.8,120.7,166.5,120.6,166.3,120.3z"/>
	<path class="st0" d="M179.2,119.9c-1.1-0.6-2-1.5-2.6-2.7s-0.9-2.5-0.9-4s0.3-2.8,0.9-4c0.6-1.2,1.5-2.1,2.6-2.7s2.4-1,3.9-1
		s2.8,0.3,3.9,1c1.1,0.6,2,1.5,2.6,2.7s0.9,2.5,0.9,4s-0.3,2.8-0.9,4c-0.6,1.2-1.5,2.1-2.6,2.7s-2.4,1-3.9,1
		C181.6,120.8,180.3,120.5,179.2,119.9z M185.4,117.9c0.7-0.4,1.3-0.9,1.8-1.7s0.7-1.8,0.7-3s-0.2-2.2-0.7-3s-1.1-1.4-1.8-1.7
		c-0.7-0.4-1.5-0.5-2.3-0.5s-1.6,0.2-2.3,0.5c-0.7,0.4-1.3,0.9-1.8,1.7c-0.5,0.8-0.7,1.8-0.7,3s0.2,2.2,0.7,3s1.1,1.4,1.8,1.7
		c0.7,0.4,1.5,0.6,2.3,0.6C183.9,118.4,184.6,118.2,185.4,117.9z"/>
	<path class="st0" d="M194.9,117v-9h-2.1c-0.2,0-0.3-0.1-0.4-0.2c-0.1-0.1-0.2-0.2-0.2-0.4c0-0.2,0.1-0.4,0.3-0.5l3.9-3.9
		c0.2-0.2,0.3-0.3,0.5-0.3s0.3,0.1,0.4,0.2c0.1,0.1,0.2,0.3,0.2,0.4v2.3h3.3c0.3,0,0.6,0.1,0.8,0.3s0.3,0.5,0.3,0.8
		s-0.1,0.6-0.3,0.8s-0.5,0.3-0.8,0.3h-3.3v8.8c0,0.8,0.2,1.2,0.5,1.4c0.4,0.2,0.8,0.3,1.3,0.3c0.4,0,0.8-0.1,1.2-0.2
		c0.1,0,0.2,0,0.2-0.1c0.1,0,0.2,0,0.3,0c0.3,0,0.5,0.1,0.7,0.3s0.3,0.4,0.3,0.7c0,0.4-0.2,0.8-0.7,1c-0.8,0.3-1.6,0.5-2.4,0.5
		C196.3,120.8,194.9,119.6,194.9,117z"/>
</g>
</svg>
